<svg width="153" height="28" viewBox="0 0 153 28" fill="none" xmlns="http://www.w3.org/2000/svg">
<g clip-path="url(#clip0_15_105)">
<path fill-rule="evenodd" clip-rule="evenodd" d="M16.2646 20.309L21.1076 0H31.8834V0.749264H29.6637V26.8552H31.8834V27.6045H19.574V26.8552H21.7937V14.5318V2.20836H21.6323L15.5785 27.6045H10.5336L3.43049 2.09005H3.26906V26.8552H5.48879V27.6045H0V26.8552H2.21973V0.749264H0V0H10.8969L16.2646 20.309ZM54.1211 9.54326V8.83343H63.8475V12.4614C64.7354 9.77987 66.6928 8.43908 69.7197 8.43908C70.4508 8.42883 71.179 8.53008 71.8781 8.73918C73.6375 9.29258 74.7543 10.6122 75.2287 12.6981C76.1704 9.85874 78.148 8.43908 81.1614 8.43908C81.9947 8.42484 82.8245 8.54707 83.6165 8.8007C85.8394 9.55627 86.9966 11.4948 87.0881 14.6162C87.0921 14.7523 87.0941 14.8885 87.0942 15.0247V26.8946H89.3543V27.6045H78.1749V26.8946H79.5874V14.0783C79.5874 12.0802 79.4126 10.9103 79.0628 10.5686C78.9424 10.4517 78.7876 10.3748 78.62 10.3485C78.553 10.3372 78.4851 10.3316 78.417 10.332C78.0061 10.3359 77.6092 10.4781 77.293 10.7346C76.9591 10.9909 76.6477 11.3694 76.3587 11.8699C76.0698 12.3795 75.8553 12.9261 75.7215 13.4939C75.5544 14.1761 75.4708 14.9361 75.4708 15.774V26.8946H76.9238V27.6045H66.5516V26.8946H67.9641V14.0783C67.9641 12.0802 67.7892 10.9103 67.4395 10.5686C67.3191 10.4517 67.1642 10.3748 66.9967 10.3485C66.9297 10.3372 66.8618 10.3316 66.7937 10.332C66.4408 10.3368 66.0995 10.4558 65.8231 10.6703C65.4448 10.9466 65.089 11.3925 64.7556 12.0079C64.405 12.6651 64.1575 13.3701 64.0215 14.0992C63.9023 14.7296 63.8441 15.3695 63.8475 16.0106V26.8946H65.3004V27.6045H54.1211V26.8946H56.3408V9.54326H54.1211ZM140.933 18.3373H142.103V15.3008C142.104 14.7937 142.097 14.2866 142.083 13.7798C142.039 12.2768 141.926 11.1797 141.743 10.4885C141.724 10.416 141.703 10.3441 141.679 10.2728C141.613 10.0648 141.519 9.86636 141.399 9.68286C141.109 9.25065 140.694 9.02101 140.155 8.99393C140.118 8.99209 140.081 8.99117 140.045 8.99117C139.561 8.99117 139.123 9.11605 138.733 9.3658C138.597 9.45075 138.477 9.55831 138.378 9.68365C138.227 9.87977 138.151 10.1109 138.148 10.3769C138.148 10.3816 138.148 10.3864 138.148 10.3911C138.149 10.7534 138.203 11.1137 138.308 11.4614C138.333 11.5457 138.36 11.6294 138.39 11.7122H139.399C139.504 11.9875 139.582 12.2723 139.631 12.5624C139.692 12.9113 139.722 13.2917 139.722 13.7036C139.723 14.0311 139.658 14.3555 139.53 14.6584C139.403 14.9612 139.215 15.2364 138.979 15.4684C138.894 15.5549 138.806 15.6371 138.713 15.7148C138.04 16.2801 137.193 16.5627 136.17 16.5627C135.715 16.5687 135.26 16.5161 134.818 16.4061C133.642 16.0956 132.956 15.3239 132.759 14.0909C132.718 13.8257 132.698 13.5578 132.7 13.2896C132.669 12.4793 132.89 11.679 133.334 10.9939C133.778 10.3089 134.424 9.77139 135.186 9.45216C136.417 8.85643 138.105 8.52347 140.25 8.45328C140.545 8.44372 140.84 8.43899 141.135 8.43908C144.336 8.43908 146.549 8.97145 147.774 10.0362C148.26 10.4737 148.642 11.0105 148.893 11.6085C149.371 12.6898 149.61 14.1177 149.61 15.8923V23.8976C149.608 24.1305 149.622 24.3632 149.651 24.5944C149.715 25.0823 149.855 25.4383 150.07 25.6623C150.16 25.7567 150.271 25.8311 150.393 25.8804C150.516 25.9297 150.648 25.9529 150.78 25.9482C150.941 25.943 151.098 25.8985 151.236 25.8189C151.374 25.7393 151.49 25.627 151.573 25.4923C151.943 24.9862 152.195 24.0582 152.33 22.7082C152.357 22.4347 152.379 22.1607 152.395 21.8864L153 21.9258C152.977 22.4609 152.929 22.9946 152.856 23.5253C152.709 24.569 152.465 25.4061 152.125 26.0365C152 26.2737 151.847 26.4955 151.668 26.6975C151.279 27.1194 150.79 27.4404 150.243 27.6317C149.58 27.8764 148.777 27.9988 147.834 27.9988C147.196 28.0034 146.558 27.9575 145.928 27.8616C145.291 27.7596 144.735 27.6008 144.258 27.3852C143.763 27.1827 143.324 26.8681 142.977 26.4675C142.631 26.0668 142.387 25.5915 142.265 25.0806C142.144 25.4327 141.987 25.7721 141.797 26.0937C141.553 26.5009 141.264 26.8403 140.929 27.1119C140.853 27.1743 140.773 27.2334 140.691 27.289C140.396 27.483 140.074 27.6323 139.734 27.7318C139.152 27.9098 138.448 27.9988 137.623 27.9988C134.053 27.9988 132.083 26.7203 131.714 24.1634C131.67 23.8532 131.649 23.5403 131.65 23.2272C131.644 22.7241 131.71 22.2227 131.846 21.7373C131.991 21.2173 132.253 20.7358 132.614 20.3282C132.975 19.9205 133.425 19.5973 133.93 19.3823C134.461 19.1464 135.014 18.9628 135.582 18.8341C136.727 18.5628 138.131 18.4026 139.794 18.3534C140.174 18.3424 140.553 18.3371 140.933 18.3373ZM121.601 16.3261V26.8946H124.466V27.6045H111.874V26.8946H114.094V9.54326H111.874V8.83343H121.601V12.6192C121.741 12.0653 121.957 11.5328 122.245 11.0367C122.591 10.4451 123.059 9.92993 123.619 9.52354C124.614 8.80057 125.744 8.43908 127.009 8.43908C127.472 8.43539 127.934 8.48892 128.383 8.5984C129.02 8.75284 129.608 9.05689 130.096 9.48411C130.647 9.97184 131.024 10.6192 131.171 11.3312C131.251 11.6962 131.29 12.0685 131.287 12.4417C131.287 13.3059 131.151 14.0342 130.879 14.6268C130.756 14.8986 130.595 15.152 130.399 15.3796C129.87 15.9911 129.087 16.3291 128.052 16.3935C127.926 16.4012 127.801 16.405 127.675 16.4049C127.32 16.4081 126.967 16.3693 126.622 16.2894C125.956 16.144 125.368 15.7639 124.971 15.2219C124.392 14.4332 124.318 13.3422 124.749 11.9488H126.202C126.261 11.8314 126.316 11.7118 126.366 11.5903C126.774 10.5847 126.529 10.038 125.63 9.95023C125.539 9.94155 125.446 9.93734 125.354 9.93761C124.816 9.94235 124.295 10.1283 123.88 10.4641C123.47 10.7785 123.087 11.234 122.731 11.8305C122.237 12.6702 121.904 13.5908 121.747 14.5472C121.648 15.1351 121.599 15.7302 121.601 16.3261ZM52.6682 17.4303H41.287V18.9682C41.2851 19.6437 41.3117 20.319 41.3669 20.9924C41.4826 22.3521 41.7243 23.4754 42.0922 24.3621C42.1541 24.5122 42.2221 24.6598 42.296 24.8046C42.5718 25.3713 43.0007 25.8536 43.5366 26.1994C43.976 26.4757 44.4905 26.6528 45.0803 26.7306C45.3213 26.7617 45.5641 26.777 45.8072 26.7763C46.7225 26.7925 47.6311 26.6217 48.4749 26.2747C49.5856 25.7978 50.4716 24.981 51.1329 23.8242C51.4767 23.2103 51.748 22.5602 51.9417 21.8864L52.6682 22.0047C52.4634 22.7864 52.1588 23.5399 51.7617 24.2474C51.2917 25.0824 50.6607 25.8206 49.9036 26.4214C48.5717 27.473 46.574 27.9988 43.9103 27.9988C40.4395 27.9988 37.8363 27.1247 36.1009 25.3764C35.0352 24.2864 34.2802 22.9427 33.911 21.479C33.67 20.5828 33.5343 19.6035 33.5042 18.5411C33.4999 18.3878 33.4977 18.2344 33.4978 18.0809C33.4893 17.1073 33.6001 16.1362 33.8279 15.1884C34.2087 13.5339 35.1178 12.0404 36.4238 10.9235C37.8856 9.69391 39.6736 8.89345 41.5812 8.61457C42.338 8.49522 43.1034 8.43653 43.87 8.43908C45.0274 8.4238 46.182 8.55758 47.3037 8.83698C50.8891 9.78473 52.6819 12.4249 52.6819 16.7575C52.6818 16.9818 52.6773 17.2061 52.6682 17.4303ZM100.493 27.9988C97.13 27.9988 94.5874 27.1575 92.8655 25.475C91.1435 23.7924 90.2825 21.3803 90.2825 18.2387C90.2745 17.2566 90.3792 16.2767 90.5945 15.3173C90.9061 13.9807 91.451 12.8273 92.2294 11.8569C92.4791 11.5458 92.7524 11.2535 93.0471 10.9826C94.1298 10.0038 95.4407 9.2979 96.8658 8.9261C97.8013 8.66741 98.8275 8.51177 99.9444 8.45919C100.235 8.44566 100.525 8.43896 100.816 8.43908C101.736 8.43363 102.655 8.50274 103.563 8.64572C104.552 8.80793 105.437 9.06518 106.219 9.41746C106.982 9.75453 107.68 10.2173 108.283 10.7855C109.118 11.5995 109.744 12.5957 110.11 13.6922C110.381 14.4641 110.565 15.323 110.662 16.2689C110.718 16.8252 110.746 17.3839 110.744 17.9429C110.744 23.2627 108.593 26.4718 104.289 27.5702C103.048 27.8701 101.772 28.0142 100.493 27.9988ZM102.996 19.8358V16.4838C102.996 13.9337 102.854 12.0737 102.572 10.9038C102.512 10.6452 102.422 10.3945 102.302 10.1569C101.967 9.51381 101.437 9.17849 100.713 9.15088C100.68 9.14959 100.647 9.14894 100.614 9.14891C100.402 9.14719 100.191 9.17143 99.9847 9.22108C99.6849 9.29273 99.4086 9.4375 99.1816 9.64185C98.8184 9.97047 98.5561 10.516 98.3946 11.2784C98.2068 12.1957 98.0918 13.4844 98.0496 15.1446C98.037 15.6566 98.031 16.1688 98.0314 16.681V19.7569C98.0312 20.2541 98.0342 20.7512 98.0407 21.2483C98.0665 23.177 98.1472 24.3892 98.2828 24.885C98.2863 24.8977 98.2899 24.9103 98.2937 24.9229C98.3538 25.1227 98.4189 25.321 98.4891 25.5176C98.6029 25.8346 98.7194 26.1096 98.8386 26.3426C98.9388 26.5663 99.0927 26.7632 99.2872 26.9167C99.4817 27.0701 99.7111 27.1757 99.9561 27.2243C100.159 27.2692 100.366 27.2909 100.574 27.289C100.908 27.2959 101.239 27.2222 101.537 27.0745C102.043 26.8129 102.403 26.3123 102.616 25.5728C102.622 25.5534 102.627 25.5339 102.632 25.5144C102.832 24.8209 102.949 23.4123 102.984 21.2886C102.992 20.8043 102.996 20.3201 102.996 19.8358ZM41.3274 14.7092V16.6416H45.4843V14.7092C45.4849 14.2472 45.4779 13.7853 45.4633 13.3235C45.4173 11.9362 45.2965 10.9456 45.1009 10.3517C45.0395 10.1569 44.9495 9.97188 44.8337 9.80235C44.5644 9.41851 44.1765 9.21463 43.6702 9.19071C43.6359 9.18911 43.6016 9.18832 43.5673 9.18834C43.3044 9.18265 43.0441 9.23935 42.8086 9.35358C42.5731 9.4678 42.3695 9.63614 42.2152 9.84415C42.0763 10.0248 41.961 10.2218 41.8722 10.4305C41.5964 11.0591 41.4253 12.0323 41.3588 13.3499C41.337 13.8027 41.3265 14.2559 41.3274 14.7092ZM142.103 22.6357V18.9682H141.821C141.374 18.9548 140.933 19.066 140.549 19.2888C139.728 19.7899 139.318 20.8792 139.318 22.5568V23.1878C139.318 24.5548 139.392 25.4355 139.54 25.8299C139.579 25.9378 139.636 26.0387 139.708 26.1288C139.868 26.3239 140.095 26.4214 140.388 26.4214C140.805 26.4214 141.195 26.0862 141.558 25.4158C141.922 24.7454 142.103 23.8187 142.103 22.6357Z" fill="black" stroke="black" stroke-width="0.944882" stroke-linecap="round"/>
</g>
<defs>
<clipPath id="clip0_15_105">
<rect width="153" height="28" fill="white"/>
</clipPath>
</defs>
</svg>
